<svg width="259" height="259" viewBox="0 0 259 259" fill="none" xmlns="http://www.w3.org/2000/svg">
<circle cx="129.5" cy="129.5" r="129.5" fill="black"/>
<g clip-path="url(#clip0_12_3)">
<path d="M129 71.9907C129 62.0039 120.897 53.9088 110.918 53.9088C100.923 53.9088 92.8364 62.0039 92.8364 71.9907C92.8364 74.7919 93.4762 77.4291 94.6223 79.7797" stroke="white" stroke-width="5" stroke-miterlimit="10" stroke-linejoin="round"/>
<path d="M185.68 110.844H181.154C178.795 110.844 177.676 109.796 177.504 108.725C176.271 100.966 171.231 90.8848 158.562 86.4617C158.44 79.4431 160.006 74.3802 163.055 66.1433C155.97 67.9209 148.142 71.7792 143.507 81.9996C138.286 80.7228 132.705 80.0329 126.877 80.0329C111.619 80.0329 100.111 84.6618 90.8974 91.8334C82.577 98.3122 77.35 109.161 77.9703 123.961C78.4377 135.124 86.2129 143.642 92.1771 148.413C93.0367 149.092 94.7503 150.179 93.8545 152.953C92.956 155.721 91.3425 159.585 91.3425 159.585C90.4023 162.049 91.6513 164.817 94.1132 165.755L103.065 169.137C105.53 170.078 108.298 168.834 109.235 166.367C109.235 166.367 110.426 163.265 111.394 160.678C113.233 155.815 114.357 159.76 126.877 159.76C139.888 159.76 141.201 157.223 142.561 161.206C143.432 163.807 144.517 166.367 144.517 166.367C145.446 168.834 148.217 170.078 150.69 169.137L159.631 165.755C162.101 164.817 163.353 162.049 162.41 159.585L160.974 155.787C160.974 155.787 159.514 153.284 162.643 151.584C168.88 148.19 173.581 143.041 176.63 136.682C177.278 135.319 178.235 133.466 181.154 133.466H185.68C188.172 133.466 190.2 131.438 190.2 128.948V115.376C190.2 112.881 188.172 110.844 185.68 110.844Z" stroke="white" stroke-width="5" stroke-miterlimit="10" stroke-linecap="round" stroke-linejoin="round"/>
<path d="M160.935 118.892C157.989 118.892 155.605 116.508 155.605 113.568C155.605 110.633 157.989 108.249 160.935 108.249C163.873 108.249 166.249 110.633 166.249 113.568C166.251 116.505 163.873 118.892 160.935 118.892Z" fill="white"/>
<path d="M78.4432 108.249C78.4432 108.249 67.8 105.812 67.8 96.2119C67.8 92.2757 69.7862 88.6537 73.2607 87.1543" stroke="white" stroke-width="5" stroke-miterlimit="10" stroke-linecap="round" stroke-linejoin="round"/>
</g>
<path d="M51.5714 189.143H52.8571V190.429H51.5714V189.143ZM50.2857 189.143H51.5714V190.429H50.2857V189.143ZM50.2857 190.429H51.5714V191.714H50.2857V190.429ZM51.5714 190.429H52.8571V191.714H51.5714V190.429ZM52.8571 190.429H54.1429V191.714H52.8571V190.429ZM52.8571 189.143H54.1429V190.429H52.8571V189.143ZM54.1429 189.143H55.4286V190.429H54.1429V189.143ZM55.4286 189.143H56.7143V190.429H55.4286V189.143ZM55.4286 190.429H56.7143V191.714H55.4286V190.429ZM54.1429 190.429H55.4286V191.714H54.1429V190.429ZM55.4286 191.714H56.7143V193H55.4286V191.714ZM56.7143 190.429H58V191.714H56.7143V190.429ZM56.7143 191.714H58V193H56.7143V191.714ZM56.7143 198.143H58V199.429H56.7143V198.143ZM56.7143 199.429H58V200.714H56.7143V199.429ZM55.4286 199.429H56.7143V200.714H55.4286V199.429ZM55.4286 198.143H56.7143V199.429H55.4286V198.143ZM54.1429 199.429H55.4286V200.714H54.1429V199.429ZM55.4286 200.714H56.7143V202H55.4286V200.714ZM54.1429 200.714H55.4286V202H54.1429V200.714ZM52.8571 200.714H54.1429V202H52.8571V200.714ZM52.8571 199.429H54.1429V200.714H52.8571V199.429ZM51.5714 200.714H52.8571V202H51.5714V200.714ZM50.2857 200.714H51.5714V202H50.2857V200.714ZM50.2857 199.429H51.5714V200.714H50.2857V199.429ZM51.5714 199.429H52.8571V200.714H51.5714V199.429ZM51.5714 198.143H52.8571V199.429H51.5714V198.143ZM50.2857 198.143H51.5714V199.429H50.2857V198.143ZM49 199.429H50.2857V200.714H49V199.429ZM49 198.143H50.2857V199.429H49V198.143ZM49 196.857H50.2857V198.143H49V196.857ZM49 195.571H50.2857V196.857H49V195.571ZM49 194.286H50.2857V195.571H49V194.286ZM49 193H50.2857V194.286H49V193ZM49 191.714H50.2857V193H49V191.714ZM50.2857 191.714H51.5714V193H50.2857V191.714ZM49 190.429H50.2857V191.714H49V190.429ZM51.5714 191.714H52.8571V193H51.5714V191.714ZM50.2857 193H51.5714V194.286H50.2857V193ZM50.2857 194.286H51.5714V195.571H50.2857V194.286ZM50.2857 195.571H51.5714V196.857H50.2857V195.571ZM50.2857 196.857H51.5714V198.143H50.2857V196.857ZM61.8605 191.714H63.1462V193H61.8605V191.714ZM60.5748 191.714H61.8605V193H60.5748V191.714ZM60.5748 193H61.8605V194.286H60.5748V193ZM61.8605 193H63.1462V194.286H61.8605V193ZM63.1462 191.714H64.4319V193H63.1462V191.714ZM64.4319 191.714H65.7176V193H64.4319V191.714ZM65.7176 191.714H67.0033V193H65.7176V191.714ZM65.7176 193H67.0033V194.286H65.7176V193ZM64.4319 193H65.7176V194.286H64.4319V193ZM65.7176 195.571H67.0033V196.857H65.7176V195.571ZM67.0033 193H68.2891V194.286H67.0033V193ZM67.0033 194.286H68.2891V195.571H67.0033V194.286ZM67.0033 195.571H68.2891V196.857H67.0033V195.571ZM67.0033 196.857H68.2891V198.143H67.0033V196.857ZM67.0033 198.143H68.2891V199.429H67.0033V198.143ZM67.0033 199.429H68.2891V200.714H67.0033V199.429ZM65.7176 199.429H67.0033V200.714H65.7176V199.429ZM65.7176 198.143H67.0033V199.429H65.7176V198.143ZM65.7176 196.857H67.0033V198.143H65.7176V196.857ZM65.7176 194.286H67.0033V195.571H65.7176V194.286ZM64.4319 199.429H65.7176V200.714H64.4319V199.429ZM65.7176 200.714H67.0033V202H65.7176V200.714ZM64.4319 200.714H65.7176V202H64.4319V200.714ZM63.1462 200.714H64.4319V202H63.1462V200.714ZM61.8605 200.714H63.1462V202H61.8605V200.714ZM60.5748 200.714H61.8605V202H60.5748V200.714ZM60.5748 199.429H61.8605V200.714H60.5748V199.429ZM61.8605 199.429H63.1462V200.714H61.8605V199.429ZM60.5748 198.143H61.8605V199.429H60.5748V198.143ZM59.2891 199.429H60.5748V200.714H59.2891V199.429ZM59.2891 198.143H60.5748V199.429H59.2891V198.143ZM59.2891 196.857H60.5748V198.143H59.2891V196.857ZM59.2891 195.571H60.5748V196.857H59.2891V195.571ZM59.2891 194.286H60.5748V195.571H59.2891V194.286ZM59.2891 193H60.5748V194.286H59.2891V193ZM60.5748 194.286H61.8605V195.571H60.5748V194.286ZM60.5748 195.571H61.8605V196.857H60.5748V195.571ZM60.5748 196.857H61.8605V198.143H60.5748V196.857ZM63.1462 199.429H64.4319V200.714H63.1462V199.429ZM63.1462 193H64.4319V194.286H63.1462V193ZM69.5781 193H70.8638V194.286H69.5781V193ZM69.5781 191.714H70.8638V193H69.5781V191.714ZM70.8638 191.714H72.1496V193H70.8638V191.714ZM70.8638 193H72.1496V194.286H70.8638V193ZM70.8638 194.286H72.1496V195.571H70.8638V194.286ZM70.8638 195.571H72.1496V196.857H70.8638V195.571ZM70.8638 196.857H72.1496V198.143H70.8638V196.857ZM69.5781 196.857H70.8638V198.143H69.5781V196.857ZM69.5781 195.571H70.8638V196.857H69.5781V195.571ZM69.5781 194.286H70.8638V195.571H69.5781V194.286ZM69.5781 198.143H70.8638V199.429H69.5781V198.143ZM70.8638 198.143H72.1496V199.429H70.8638V198.143ZM70.8638 199.429H72.1496V200.714H70.8638V199.429ZM70.8638 200.714H72.1496V202H70.8638V200.714ZM69.5781 200.714H70.8638V202H69.5781V200.714ZM69.5781 199.429H70.8638V200.714H69.5781V199.429ZM76.0067 200.714H77.2924V202H76.0067V200.714ZM77.2924 200.714H78.5781V202H77.2924V200.714ZM77.2924 199.429H78.5781V200.714H77.2924V199.429ZM77.2924 198.143H78.5781V199.429H77.2924V198.143ZM77.2924 196.857H78.5781V198.143H77.2924V196.857ZM77.2924 195.571H78.5781V196.857H77.2924V195.571ZM77.2924 194.286H78.5781V195.571H77.2924V194.286ZM77.2924 193H78.5781V194.286H77.2924V193ZM76.0067 195.571H77.2924V196.857H76.0067V195.571ZM76.0067 196.857H77.2924V198.143H76.0067V196.857ZM76.0067 198.143H77.2924V199.429H76.0067V198.143ZM76.0067 199.429H77.2924V200.714H76.0067V199.429ZM76.0067 194.286H77.2924V195.571H76.0067V194.286ZM72.1496 193H73.4353V194.286H72.1496V193ZM73.4353 193H74.721V194.286H73.4353V193ZM74.721 193H76.0067V194.286H74.721V193ZM74.721 191.714H76.0067V193H74.721V191.714ZM76.0067 191.714H77.2924V193H76.0067V191.714ZM76.0067 193H77.2924V194.286H76.0067V193ZM73.4353 191.714H74.721V193H73.4353V191.714ZM85.01 199.429H86.2958V200.714H85.01V199.429ZM85.01 200.714H86.2958V202H85.01V200.714ZM83.7243 200.714H85.01V202H83.7243V200.714ZM83.7243 199.429H85.01V200.714H83.7243V199.429ZM82.4386 200.714H83.7243V202H82.4386V200.714ZM82.4386 199.429H83.7243V200.714H82.4386V199.429ZM81.1529 199.429H82.4386V200.714H81.1529V199.429ZM81.1529 198.143H82.4386V199.429H81.1529V198.143ZM81.1529 196.857H82.4386V198.143H81.1529V196.857ZM81.1529 195.571H82.4386V196.857H81.1529V195.571ZM81.1529 194.286H82.4386V195.571H81.1529V194.286ZM81.1529 193H82.4386V194.286H81.1529V193ZM82.4386 196.857H83.7243V198.143H82.4386V196.857ZM82.4386 198.143H83.7243V199.429H82.4386V198.143ZM82.4386 195.571H83.7243V196.857H82.4386V195.571ZM82.4386 194.286H83.7243V195.571H82.4386V194.286ZM82.4386 189.143H83.7243V190.429H82.4386V189.143ZM82.4386 190.429H83.7243V191.714H82.4386V190.429ZM82.4386 191.714H83.7243V193H82.4386V191.714ZM82.4386 193H83.7243V194.286H82.4386V193ZM81.1529 191.714H82.4386V193H81.1529V191.714ZM79.8672 193H81.1529V194.286H79.8672V193ZM83.7243 193H85.01V194.286H83.7243V193ZM85.01 193H86.2958V194.286H85.01V193ZM81.1529 190.429H82.4386V191.714H81.1529V190.429ZM79.8672 194.286H81.1529V195.571H79.8672V194.286ZM83.7243 194.286H85.01V195.571H83.7243V194.286ZM85.01 194.286H86.2958V195.571H85.01V194.286ZM87.5781 193H88.8638V194.286H87.5781V193ZM87.5781 191.714H88.8638V193H87.5781V191.714ZM88.8638 191.714H90.1496V193H88.8638V191.714ZM88.8638 193H90.1496V194.286H88.8638V193ZM88.8638 194.286H90.1496V195.571H88.8638V194.286ZM88.8638 195.571H90.1496V196.857H88.8638V195.571ZM88.8638 196.857H90.1496V198.143H88.8638V196.857ZM87.5781 196.857H88.8638V198.143H87.5781V196.857ZM87.5781 195.571H88.8638V196.857H87.5781V195.571ZM87.5781 194.286H88.8638V195.571H87.5781V194.286ZM87.5781 198.143H88.8638V199.429H87.5781V198.143ZM88.8638 198.143H90.1496V199.429H88.8638V198.143ZM88.8638 199.429H90.1496V200.714H88.8638V199.429ZM88.8638 200.714H90.1496V202H88.8638V200.714ZM87.5781 200.714H88.8638V202H87.5781V200.714ZM87.5781 199.429H88.8638V200.714H87.5781V199.429ZM90.1496 193H91.4353V194.286H90.1496V193ZM91.4353 193H92.721V194.286H91.4353V193ZM92.721 193H94.0067V194.286H92.721V193ZM92.721 191.714H94.0067V193H92.721V191.714ZM91.4353 191.714H92.721V193H91.4353V191.714ZM90.1496 194.286H91.4353V195.571H90.1496V194.286ZM94.0067 193H95.2924V194.286H94.0067V193ZM92.721 194.286H94.0067V195.571H92.721V194.286ZM99.1496 191.714H100.435V193H99.1496V191.714ZM97.8638 191.714H99.1496V193H97.8638V191.714ZM97.8638 193H99.1496V194.286H97.8638V193ZM99.1496 193H100.435V194.286H99.1496V193ZM100.435 191.714H101.721V193H100.435V191.714ZM101.721 191.714H103.007V193H101.721V191.714ZM103.007 191.714H104.292V193H103.007V191.714ZM103.007 193H104.292V194.286H103.007V193ZM101.721 193H103.007V194.286H101.721V193ZM103.007 195.571H104.292V196.857H103.007V195.571ZM104.292 193H105.578V194.286H104.292V193ZM104.292 194.286H105.578V195.571H104.292V194.286ZM104.292 195.571H105.578V196.857H104.292V195.571ZM104.292 196.857H105.578V198.143H104.292V196.857ZM104.292 198.143H105.578V199.429H104.292V198.143ZM104.292 199.429H105.578V200.714H104.292V199.429ZM103.007 199.429H104.292V200.714H103.007V199.429ZM103.007 198.143H104.292V199.429H103.007V198.143ZM103.007 196.857H104.292V198.143H103.007V196.857ZM103.007 194.286H104.292V195.571H103.007V194.286ZM101.721 199.429H103.007V200.714H101.721V199.429ZM103.007 200.714H104.292V202H103.007V200.714ZM101.721 200.714H103.007V202H101.721V200.714ZM100.435 200.714H101.721V202H100.435V200.714ZM99.1496 200.714H100.435V202H99.1496V200.714ZM97.8638 200.714H99.1496V202H97.8638V200.714ZM97.8638 199.429H99.1496V200.714H97.8638V199.429ZM99.1496 199.429H100.435V200.714H99.1496V199.429ZM97.8638 198.143H99.1496V199.429H97.8638V198.143ZM96.5781 199.429H97.8638V200.714H96.5781V199.429ZM96.5781 198.143H97.8638V199.429H96.5781V198.143ZM96.5781 196.857H97.8638V198.143H96.5781V196.857ZM96.5781 195.571H97.8638V196.857H96.5781V195.571ZM96.5781 194.286H97.8638V195.571H96.5781V194.286ZM96.5781 193H97.8638V194.286H96.5781V193ZM97.8638 194.286H99.1496V195.571H97.8638V194.286ZM97.8638 195.571H99.1496V196.857H97.8638V195.571ZM97.8638 196.857H99.1496V198.143H97.8638V196.857ZM100.435 199.429H101.721V200.714H100.435V199.429ZM100.435 193H101.721V194.286H100.435V193ZM106.867 189.143H108.153V190.429H106.867V189.143ZM108.153 189.143H109.439V190.429H108.153V189.143ZM108.153 190.429H109.439V191.714H108.153V190.429ZM108.153 191.714H109.439V193H108.153V191.714ZM108.153 193H109.439V194.286H108.153V193ZM108.153 194.286H109.439V195.571H108.153V194.286ZM108.153 195.571H109.439V196.857H108.153V195.571ZM106.867 195.571H108.153V196.857H106.867V195.571ZM106.867 196.857H108.153V198.143H106.867V196.857ZM106.867 198.143H108.153V199.429H106.867V198.143ZM106.867 199.429H108.153V200.714H106.867V199.429ZM106.867 200.714H108.153V202H106.867V200.714ZM108.153 200.714H109.439V202H108.153V200.714ZM108.153 199.429H109.439V200.714H108.153V199.429ZM108.153 198.143H109.439V199.429H108.153V198.143ZM108.153 196.857H109.439V198.143H108.153V196.857ZM106.867 194.286H108.153V195.571H106.867V194.286ZM106.867 193H108.153V194.286H106.867V193ZM106.867 191.714H108.153V193H106.867V191.714ZM106.867 190.429H108.153V191.714H106.867V190.429ZM113.306 191.714H114.592V193H113.306V191.714ZM112.02 191.714H113.306V193H112.02V191.714ZM112.02 193H113.306V194.286H112.02V193ZM113.306 193H114.592V194.286H113.306V193ZM114.592 191.714H115.877V193H114.592V191.714ZM115.877 191.714H117.163V193H115.877V191.714ZM117.163 191.714H118.449V193H117.163V191.714ZM117.163 193H118.449V194.286H117.163V193ZM115.877 193H117.163V194.286H115.877V193ZM118.449 193H119.734V194.286H118.449V193ZM118.449 194.286H119.734V195.571H118.449V194.286ZM118.449 199.429H119.734V200.714H118.449V199.429ZM117.163 199.429H118.449V200.714H117.163V199.429ZM117.163 194.286H118.449V195.571H117.163V194.286ZM115.877 199.429H117.163V200.714H115.877V199.429ZM117.163 200.714H118.449V202H117.163V200.714ZM115.877 200.714H117.163V202H115.877V200.714ZM114.592 200.714H115.877V202H114.592V200.714ZM113.306 200.714H114.592V202H113.306V200.714ZM112.02 200.714H113.306V202H112.02V200.714ZM112.02 199.429H113.306V200.714H112.02V199.429ZM113.306 199.429H114.592V200.714H113.306V199.429ZM112.02 198.143H113.306V199.429H112.02V198.143ZM110.734 199.429H112.02V200.714H110.734V199.429ZM110.734 198.143H112.02V199.429H110.734V198.143ZM110.734 196.857H112.02V198.143H110.734V196.857ZM110.734 195.571H112.02V196.857H110.734V195.571ZM110.734 194.286H112.02V195.571H110.734V194.286ZM110.734 193H112.02V194.286H110.734V193ZM112.02 194.286H113.306V195.571H112.02V194.286ZM112.02 195.571H113.306V196.857H112.02V195.571ZM112.02 196.857H113.306V198.143H112.02V196.857ZM114.592 199.429H115.877V200.714H114.592V199.429ZM114.592 193H115.877V194.286H114.592V193ZM117.163 195.571H118.449V196.857H117.163V195.571ZM118.449 195.571H119.734V196.857H118.449V195.571ZM113.306 196.857H114.592V198.143H113.306V196.857ZM114.592 196.857H115.877V198.143H114.592V196.857ZM115.877 196.857H117.163V198.143H115.877V196.857ZM117.163 196.857H118.449V198.143H117.163V196.857ZM118.449 196.857H119.734V198.143H118.449V196.857ZM115.877 195.571H117.163V196.857H115.877V195.571ZM114.592 195.571H115.877V196.857H114.592V195.571ZM113.306 195.571H114.592V196.857H113.306V195.571ZM126.156 189.143H127.442V190.429H126.156V189.143ZM127.442 189.143H128.728V190.429H127.442V189.143ZM127.442 190.429H128.728V191.714H127.442V190.429ZM127.442 191.714H128.728V193H127.442V191.714ZM127.442 193H128.728V194.286H127.442V193ZM126.156 193H127.442V194.286H126.156V193ZM126.156 191.714H127.442V193H126.156V191.714ZM126.156 190.429H127.442V191.714H126.156V190.429ZM126.156 194.286H127.442V195.571H126.156V194.286ZM126.156 195.571H127.442V196.857H126.156V195.571ZM126.156 196.857H127.442V198.143H126.156V196.857ZM127.442 195.571H128.728V196.857H127.442V195.571ZM127.442 194.286H128.728V195.571H127.442V194.286ZM127.442 196.857H128.728V198.143H127.442V196.857ZM127.442 198.143H128.728V199.429H127.442V198.143ZM126.156 199.429H127.442V200.714H126.156V199.429ZM126.156 198.143H127.442V199.429H126.156V198.143ZM126.156 200.714H127.442V202H126.156V200.714ZM127.442 200.714H128.728V202H127.442V200.714ZM127.442 199.429H128.728V200.714H127.442V199.429ZM128.728 189.143H130.013V190.429H128.728V189.143ZM130.013 189.143H131.299V190.429H130.013V189.143ZM131.299 189.143H132.585V190.429H131.299V189.143ZM132.585 189.143H133.871V190.429H132.585V189.143ZM131.299 190.429H132.585V191.714H131.299V190.429ZM130.013 190.429H131.299V191.714H130.013V190.429ZM128.728 190.429H130.013V191.714H128.728V190.429ZM128.728 195.571H130.013V196.857H128.728V195.571ZM130.013 194.286H131.299V195.571H130.013V194.286ZM128.728 194.286H130.013V195.571H128.728V194.286ZM130.013 195.571H131.299V196.857H130.013V195.571ZM132.585 190.429H133.871V191.714H132.585V190.429ZM131.299 194.286H132.585V195.571H131.299V194.286ZM131.299 195.571H132.585V196.857H131.299V195.571ZM135.156 189.143H137.728V191.714H135.156V189.143ZM135.156 193H137.728V202H135.156V193ZM139.023 193H140.309V194.286H139.023V193ZM139.023 191.714H140.309V193H139.023V191.714ZM140.309 191.714H141.595V193H140.309V191.714ZM140.309 193H141.595V194.286H140.309V193ZM140.309 194.286H141.595V195.571H140.309V194.286ZM140.309 195.571H141.595V196.857H140.309V195.571ZM140.309 196.857H141.595V198.143H140.309V196.857ZM139.023 196.857H140.309V198.143H139.023V196.857ZM139.023 195.571H140.309V196.857H139.023V195.571ZM139.023 194.286H140.309V195.571H139.023V194.286ZM139.023 198.143H140.309V199.429H139.023V198.143ZM140.309 198.143H141.595V199.429H140.309V198.143ZM140.309 199.429H141.595V200.714H140.309V199.429ZM140.309 200.714H141.595V202H140.309V200.714ZM139.023 200.714H140.309V202H139.023V200.714ZM139.023 199.429H140.309V200.714H139.023V199.429ZM145.452 200.714H146.738V202H145.452V200.714ZM146.738 200.714H148.023V202H146.738V200.714ZM146.738 199.429H148.023V200.714H146.738V199.429ZM146.738 198.143H148.023V199.429H146.738V198.143ZM146.738 196.857H148.023V198.143H146.738V196.857ZM146.738 195.571H148.023V196.857H146.738V195.571ZM146.738 194.286H148.023V195.571H146.738V194.286ZM146.738 193H148.023V194.286H146.738V193ZM145.452 195.571H146.738V196.857H145.452V195.571ZM145.452 196.857H146.738V198.143H145.452V196.857ZM145.452 198.143H146.738V199.429H145.452V198.143ZM145.452 199.429H146.738V200.714H145.452V199.429ZM145.452 194.286H146.738V195.571H145.452V194.286ZM141.595 193H142.881V194.286H141.595V193ZM142.881 193H144.166V194.286H142.881V193ZM144.166 193H145.452V194.286H144.166V193ZM144.166 191.714H145.452V193H144.166V191.714ZM145.452 191.714H146.738V193H145.452V191.714ZM145.452 193H146.738V194.286H145.452V193ZM142.881 191.714H144.166V193H142.881V191.714ZM157.027 202H155.741V200.714H157.027V202ZM157.027 200.714H155.741V199.429H157.027V200.714ZM155.741 200.714H154.455V199.429H155.741V200.714ZM154.455 202H153.17V200.714H154.455V202ZM153.17 202H151.884V200.714H153.17V202ZM151.884 202H150.598V200.714H151.884V202ZM151.884 200.714H150.598V199.429H151.884V200.714ZM153.17 200.714H151.884V199.429H153.17V200.714ZM150.598 200.714H149.312V199.429H150.598V200.714ZM150.598 199.429H149.312V198.143H150.598V199.429ZM150.598 194.286H149.312V193H150.598V194.286ZM151.884 194.286H150.598V193H151.884V194.286ZM151.884 199.429H150.598V198.143H151.884V199.429ZM153.17 194.286H151.884V193H153.17V194.286ZM151.884 193H150.598V191.714H151.884V193ZM153.17 193H151.884V191.714H153.17V193ZM154.455 193H153.17V191.714H154.455V193ZM155.741 193H154.455V191.714H155.741V193ZM157.027 193H155.741V191.714H157.027V193ZM157.027 194.286H155.741V193H157.027V194.286ZM155.741 194.286H154.455V193H155.741V194.286ZM157.027 195.571H155.741V194.286H157.027V195.571ZM158.312 194.286H157.027V193H158.312V194.286ZM158.312 195.571H157.027V194.286H158.312V195.571ZM158.312 196.857H157.027V195.571H158.312V196.857ZM158.312 198.143H157.027V196.857H158.312V198.143ZM158.312 199.429H157.027V198.143H158.312V199.429ZM158.312 200.714H157.027V199.429H158.312V200.714ZM157.027 199.429H155.741V198.143H157.027V199.429ZM157.027 198.143H155.741V196.857H157.027V198.143ZM157.027 196.857H155.741V195.571H157.027V196.857ZM154.455 194.286H153.17V193H154.455V194.286ZM154.455 200.714H153.17V199.429H154.455V200.714ZM157.027 200.714H158.312V202H157.027V200.714ZM154.455 195.571H155.741V196.857H154.455V195.571ZM153.17 195.571H154.455V196.857H153.17V195.571ZM151.884 195.571H153.17V196.857H151.884V195.571ZM150.598 195.571H151.884V196.857H150.598V195.571ZM149.312 196.857H150.598V198.143H149.312V196.857ZM150.598 196.857H151.884V198.143H150.598V196.857ZM154.455 196.857H155.741V198.143H154.455V196.857ZM153.17 196.857H154.455V198.143H153.17V196.857ZM151.884 196.857H153.17V198.143H151.884V196.857ZM159.602 193H160.887V194.286H159.602V193ZM159.602 191.714H160.887V193H159.602V191.714ZM160.887 191.714H162.173V193H160.887V191.714ZM160.887 193H162.173V194.286H160.887V193ZM160.887 194.286H162.173V195.571H160.887V194.286ZM160.887 195.571H162.173V196.857H160.887V195.571ZM160.887 196.857H162.173V198.143H160.887V196.857ZM159.602 196.857H160.887V198.143H159.602V196.857ZM159.602 195.571H160.887V196.857H159.602V195.571ZM159.602 194.286H160.887V195.571H159.602V194.286ZM159.602 198.143H160.887V199.429H159.602V198.143ZM160.887 198.143H162.173V199.429H160.887V198.143ZM160.887 199.429H162.173V200.714H160.887V199.429ZM160.887 200.714H162.173V202H160.887V200.714ZM159.602 200.714H160.887V202H159.602V200.714ZM159.602 199.429H160.887V200.714H159.602V199.429ZM166.03 200.714H167.316V202H166.03V200.714ZM167.316 200.714H168.602V202H167.316V200.714ZM167.316 199.429H168.602V200.714H167.316V199.429ZM167.316 198.143H168.602V199.429H167.316V198.143ZM167.316 196.857H168.602V198.143H167.316V196.857ZM167.316 195.571H168.602V196.857H167.316V195.571ZM167.316 194.286H168.602V195.571H167.316V194.286ZM167.316 193H168.602V194.286H167.316V193ZM166.03 195.571H167.316V196.857H166.03V195.571ZM166.03 196.857H167.316V198.143H166.03V196.857ZM166.03 198.143H167.316V199.429H166.03V198.143ZM166.03 199.429H167.316V200.714H166.03V199.429ZM166.03 194.286H167.316V195.571H166.03V194.286ZM162.173 193H163.459V194.286H162.173V193ZM163.459 193H164.744V194.286H163.459V193ZM164.744 193H166.03V194.286H164.744V193ZM164.744 191.714H166.03V193H164.744V191.714ZM166.03 191.714H167.316V193H166.03V191.714ZM166.03 193H167.316V194.286H166.03V193ZM163.459 191.714H164.744V193H163.459V191.714ZM172.462 191.714H173.748V193H172.462V191.714ZM171.176 191.714H172.462V193H171.176V191.714ZM171.176 193H172.462V194.286H171.176V193ZM172.462 193H173.748V194.286H172.462V193ZM173.748 191.714H175.033V193H173.748V191.714ZM175.033 191.714H176.319V193H175.033V191.714ZM176.319 191.714H177.605V193H176.319V191.714ZM176.319 193H177.605V194.286H176.319V193ZM175.033 193H176.319V194.286H175.033V193ZM177.605 193H178.891V194.286H177.605V193ZM177.605 194.286H178.891V195.571H177.605V194.286ZM177.605 198.143H178.891V199.429H177.605V198.143ZM177.605 199.429H178.891V200.714H177.605V199.429ZM176.319 199.429H177.605V200.714H176.319V199.429ZM176.319 198.143H177.605V199.429H176.319V198.143ZM176.319 194.286H177.605V195.571H176.319V194.286ZM175.033 199.429H176.319V200.714H175.033V199.429ZM176.319 200.714H177.605V202H176.319V200.714ZM175.033 200.714H176.319V202H175.033V200.714ZM173.748 200.714H175.033V202H173.748V200.714ZM172.462 200.714H173.748V202H172.462V200.714ZM171.176 200.714H172.462V202H171.176V200.714ZM171.176 199.429H172.462V200.714H171.176V199.429ZM172.462 199.429H173.748V200.714H172.462V199.429ZM171.176 198.143H172.462V199.429H171.176V198.143ZM169.891 199.429H171.176V200.714H169.891V199.429ZM169.891 198.143H171.176V199.429H169.891V198.143ZM169.891 196.857H171.176V198.143H169.891V196.857ZM169.891 195.571H171.176V196.857H169.891V195.571ZM169.891 194.286H171.176V195.571H169.891V194.286ZM169.891 193H171.176V194.286H169.891V193ZM171.176 194.286H172.462V195.571H171.176V194.286ZM171.176 195.571H172.462V196.857H171.176V195.571ZM171.176 196.857H172.462V198.143H171.176V196.857ZM173.748 199.429H175.033V200.714H173.748V199.429ZM173.748 193H175.033V194.286H173.748V193ZM182.751 191.714H184.037V193H182.751V191.714ZM181.465 191.714H182.751V193H181.465V191.714ZM181.465 193H182.751V194.286H181.465V193ZM182.751 193H184.037V194.286H182.751V193ZM184.037 191.714H185.323V193H184.037V191.714ZM185.323 191.714H186.608V193H185.323V191.714ZM186.608 191.714H187.894V193H186.608V191.714ZM186.608 193H187.894V194.286H186.608V193ZM185.323 193H186.608V194.286H185.323V193ZM187.894 193H189.18V194.286H187.894V193ZM187.894 194.286H189.18V195.571H187.894V194.286ZM187.894 199.429H189.18V200.714H187.894V199.429ZM186.608 199.429H187.894V200.714H186.608V199.429ZM186.608 194.286H187.894V195.571H186.608V194.286ZM185.323 199.429H186.608V200.714H185.323V199.429ZM186.608 200.714H187.894V202H186.608V200.714ZM185.323 200.714H186.608V202H185.323V200.714ZM184.037 200.714H185.323V202H184.037V200.714ZM182.751 200.714H184.037V202H182.751V200.714ZM181.465 200.714H182.751V202H181.465V200.714ZM181.465 199.429H182.751V200.714H181.465V199.429ZM182.751 199.429H184.037V200.714H182.751V199.429ZM181.465 198.143H182.751V199.429H181.465V198.143ZM180.18 199.429H181.465V200.714H180.18V199.429ZM180.18 198.143H181.465V199.429H180.18V198.143ZM180.18 196.857H181.465V198.143H180.18V196.857ZM180.18 195.571H181.465V196.857H180.18V195.571ZM180.18 194.286H181.465V195.571H180.18V194.286ZM180.18 193H181.465V194.286H180.18V193ZM181.465 194.286H182.751V195.571H181.465V194.286ZM181.465 195.571H182.751V196.857H181.465V195.571ZM181.465 196.857H182.751V198.143H181.465V196.857ZM184.037 199.429H185.323V200.714H184.037V199.429ZM184.037 193H185.323V194.286H184.037V193ZM186.608 195.571H187.894V196.857H186.608V195.571ZM187.894 195.571H189.18V196.857H187.894V195.571ZM182.751 196.857H184.037V198.143H182.751V196.857ZM184.037 196.857H185.323V198.143H184.037V196.857ZM185.323 196.857H186.608V198.143H185.323V196.857ZM186.608 196.857H187.894V198.143H186.608V196.857ZM187.894 196.857H189.18V198.143H187.894V196.857ZM185.323 195.571H186.608V196.857H185.323V195.571ZM184.037 195.571H185.323V196.857H184.037V195.571ZM182.751 195.571H184.037V196.857H182.751V195.571ZM190.469 189.143H193.04V191.714H190.469V189.143ZM190.469 193H193.04V202H190.469V193ZM194.336 193H195.622V194.286H194.336V193ZM194.336 191.714H195.622V193H194.336V191.714ZM195.622 191.714H196.907V193H195.622V191.714ZM195.622 193H196.907V194.286H195.622V193ZM195.622 194.286H196.907V195.571H195.622V194.286ZM195.622 195.571H196.907V196.857H195.622V195.571ZM195.622 196.857H196.907V198.143H195.622V196.857ZM194.336 196.857H195.622V198.143H194.336V196.857ZM194.336 195.571H195.622V196.857H194.336V195.571ZM194.336 194.286H195.622V195.571H194.336V194.286ZM194.336 198.143H195.622V199.429H194.336V198.143ZM195.622 198.143H196.907V199.429H195.622V198.143ZM195.622 199.429H196.907V200.714H195.622V199.429ZM195.622 200.714H196.907V202H195.622V200.714ZM194.336 200.714H195.622V202H194.336V200.714ZM194.336 199.429H195.622V200.714H194.336V199.429ZM196.907 193H198.193V194.286H196.907V193ZM198.193 193H199.479V194.286H198.193V193ZM199.479 193H200.765V194.286H199.479V193ZM199.479 191.714H200.765V193H199.479V191.714ZM198.193 191.714H199.479V193H198.193V191.714ZM196.907 194.286H198.193V195.571H196.907V194.286ZM200.765 193H202.05V194.286H200.765V193ZM199.479 194.286H200.765V195.571H199.479V194.286ZM205.907 191.714H207.193V193H205.907V191.714ZM204.622 191.714H205.907V193H204.622V191.714ZM204.622 193H205.907V194.286H204.622V193ZM205.907 193H207.193V194.286H205.907V193ZM207.193 191.714H208.479V193H207.193V191.714ZM208.479 191.714H209.765V193H208.479V191.714ZM209.765 191.714H211.05V193H209.765V191.714ZM209.765 193H211.05V194.286H209.765V193ZM208.479 193H209.765V194.286H208.479V193ZM209.765 195.571H211.05V196.857H209.765V195.571ZM211.05 193H212.336V194.286H211.05V193ZM211.05 194.286H212.336V195.571H211.05V194.286ZM211.05 195.571H212.336V196.857H211.05V195.571ZM211.05 196.857H212.336V198.143H211.05V196.857ZM211.05 198.143H212.336V199.429H211.05V198.143ZM211.05 199.429H212.336V200.714H211.05V199.429ZM209.765 199.429H211.05V200.714H209.765V199.429ZM209.765 198.143H211.05V199.429H209.765V198.143ZM209.765 196.857H211.05V198.143H209.765V196.857ZM209.765 194.286H211.05V195.571H209.765V194.286ZM208.479 199.429H209.765V200.714H208.479V199.429ZM209.765 200.714H211.05V202H209.765V200.714ZM208.479 200.714H209.765V202H208.479V200.714ZM207.193 200.714H208.479V202H207.193V200.714ZM205.907 200.714H207.193V202H205.907V200.714ZM204.622 200.714H205.907V202H204.622V200.714ZM204.622 199.429H205.907V200.714H204.622V199.429ZM205.907 199.429H207.193V200.714H205.907V199.429ZM204.622 198.143H205.907V199.429H204.622V198.143ZM203.336 199.429H204.622V200.714H203.336V199.429ZM203.336 198.143H204.622V199.429H203.336V198.143ZM203.336 196.857H204.622V198.143H203.336V196.857ZM203.336 195.571H204.622V196.857H203.336V195.571ZM203.336 194.286H204.622V195.571H203.336V194.286ZM203.336 193H204.622V194.286H203.336V193ZM204.622 194.286H205.907V195.571H204.622V194.286ZM204.622 195.571H205.907V196.857H204.622V195.571ZM204.622 196.857H205.907V198.143H204.622V196.857ZM207.193 199.429H208.479V200.714H207.193V199.429ZM207.193 193H208.479V194.286H207.193V193Z" fill="white"/>
<defs>
<clipPath id="clip0_12_3">
<rect width="139.091" height="139.091" fill="white" transform="translate(59.4545 44)"/>
</clipPath>
</defs>
</svg>
