<svg width="480" height="480" viewBox="0 0 480 480" fill="none" xmlns="http://www.w3.org/2000/svg">
<g clip-path="url(#clip0_0_1)">
<path d="M240 204.149C240 195.533 233.009 188.549 224.4 188.549C215.777 188.549 208.8 195.533 208.8 204.149C208.8 206.566 209.352 208.841 210.341 210.869" stroke="white" stroke-width="5" stroke-miterlimit="10" stroke-linejoin="round"/>
<path d="M288.9 237.67H284.995C282.96 237.67 281.995 236.765 281.846 235.841C280.783 229.147 276.434 220.45 265.505 216.634C265.399 210.578 266.75 206.21 269.381 199.104C263.268 200.638 256.514 203.966 252.516 212.784C248.011 211.682 243.197 211.087 238.169 211.087C225.005 211.087 215.076 215.081 207.127 221.268C199.949 226.858 195.439 236.218 195.974 248.986C196.378 258.617 203.086 265.966 208.231 270.082C208.973 270.667 210.451 271.606 209.678 273.998C208.903 276.386 207.511 279.72 207.511 279.72C206.7 281.846 207.778 284.234 209.902 285.043L217.625 287.962C219.751 288.773 222.139 287.7 222.948 285.571C222.948 285.571 223.975 282.895 224.81 280.663C226.397 276.468 227.366 279.871 238.169 279.871C249.394 279.871 250.526 277.682 251.7 281.119C252.451 283.363 253.387 285.571 253.387 285.571C254.189 287.7 256.579 288.773 258.713 287.962L266.426 285.043C268.558 284.234 269.638 281.846 268.824 279.72L267.586 276.444C267.586 276.444 266.326 274.284 269.026 272.818C274.406 269.89 278.462 265.447 281.093 259.961C281.652 258.785 282.478 257.186 284.995 257.186H288.9C291.05 257.186 292.8 255.437 292.8 253.289V241.579C292.8 239.426 291.05 237.67 288.9 237.67Z" stroke="white" stroke-width="5" stroke-miterlimit="10" stroke-linecap="round" stroke-linejoin="round"/>
<path d="M267.552 244.613C265.01 244.613 262.954 242.556 262.954 240.019C262.954 237.487 265.01 235.43 267.552 235.43C270.086 235.43 272.136 237.487 272.136 240.019C272.138 242.554 270.086 244.613 267.552 244.613Z" fill="white"/>
<path d="M196.382 235.43C196.382 235.43 187.2 233.328 187.2 225.046C187.2 221.65 188.914 218.525 191.911 217.231" stroke="white" stroke-width="5" stroke-miterlimit="10" stroke-linecap="round" stroke-linejoin="round"/>
</g>
<rect x="40" y="4" width="108.5" height="30" rx="3" fill="#444444"/>
<rect x="40.5" y="4.5" width="107.5" height="29" rx="2.5" stroke="white" stroke-opacity="0.0980392"/>
<path d="M48.6094 22.1406C48.2292 22.1406 47.8841 22.069 47.5742 21.9258C47.2643 21.7799 47.0182 21.5703 46.8359 21.2969C46.6536 21.0208 46.5625 20.6875 46.5625 20.2969C46.5625 19.9531 46.6302 19.6745 46.7656 19.4609C46.901 19.2448 47.082 19.0755 47.3086 18.9531C47.5352 18.8307 47.7852 18.7396 48.0586 18.6797C48.3346 18.6172 48.612 18.5677 48.8906 18.5313C49.2552 18.4844 49.5508 18.4492 49.7773 18.4258C50.0065 18.3997 50.1732 18.3568 50.2773 18.2969C50.3841 18.237 50.4375 18.1328 50.4375 17.9844V17.9531C50.4375 17.5677 50.332 17.2682 50.1211 17.0547C49.9128 16.8411 49.5964 16.7344 49.1719 16.7344C48.7318 16.7344 48.3867 16.8307 48.1367 17.0234C47.8867 17.2161 47.7109 17.4219 47.6094 17.6406L46.7344 17.3281C46.8906 16.9635 47.099 16.6797 47.3594 16.4766C47.6224 16.2708 47.9089 16.1276 48.2188 16.0469C48.5313 15.9635 48.8385 15.9219 49.1406 15.9219C49.3333 15.9219 49.5547 15.9453 49.8047 15.9922C50.0573 16.0365 50.3008 16.1289 50.5352 16.2695C50.7721 16.4102 50.9688 16.6224 51.125 16.9062C51.2813 17.1901 51.3594 17.5703 51.3594 18.0469V22H50.4375V21.1875H50.3906C50.3281 21.3177 50.224 21.457 50.0781 21.6055C49.9323 21.7539 49.7383 21.8802 49.4961 21.9844C49.2539 22.0885 48.9583 22.1406 48.6094 22.1406ZM48.75 21.3125C49.1146 21.3125 49.4219 21.2409 49.6719 21.0977C49.9245 20.9544 50.1146 20.7695 50.2422 20.543C50.3724 20.3164 50.4375 20.0781 50.4375 19.8281V18.9844C50.3984 19.0312 50.3125 19.0742 50.1797 19.1133C50.0495 19.1497 49.8984 19.1823 49.7266 19.2109C49.5573 19.237 49.3919 19.2604 49.2305 19.2812C49.0716 19.2995 48.9427 19.3151 48.8438 19.3281C48.6042 19.3594 48.3802 19.4102 48.1719 19.4805C47.9661 19.5482 47.7995 19.651 47.6719 19.7891C47.5469 19.9245 47.4844 20.1094 47.4844 20.3437C47.4844 20.6641 47.6029 20.9062 47.8398 21.0703C48.0794 21.2318 48.3828 21.3125 48.75 21.3125ZM53.042 24.25V16H53.9326V16.9531H54.042C54.1097 16.849 54.2035 16.7161 54.3232 16.5547C54.4456 16.3906 54.6201 16.2448 54.8467 16.1172C55.0758 15.987 55.3857 15.9219 55.7764 15.9219C56.2816 15.9219 56.7269 16.0482 57.1123 16.3008C57.4977 16.5534 57.7985 16.9115 58.0146 17.375C58.2308 17.8385 58.3389 18.3854 58.3389 19.0156C58.3389 19.651 58.2308 20.2018 58.0146 20.668C57.7985 21.1315 57.499 21.4909 57.1162 21.7461C56.7334 21.9987 56.292 22.125 55.792 22.125C55.4066 22.125 55.098 22.0612 54.8662 21.9336C54.6344 21.8034 54.4561 21.6562 54.3311 21.4922C54.2061 21.3255 54.1097 21.1875 54.042 21.0781H53.9639V24.25H53.042ZM53.9482 19C53.9482 19.4531 54.0146 19.8529 54.1475 20.1992C54.2803 20.543 54.4743 20.8125 54.7295 21.0078C54.9847 21.2005 55.2972 21.2969 55.667 21.2969C56.0524 21.2969 56.374 21.1953 56.6318 20.9922C56.8923 20.7865 57.0876 20.5104 57.2178 20.1641C57.3506 19.8151 57.417 19.4271 57.417 19C57.417 18.5781 57.3519 18.1979 57.2217 17.8594C57.0941 17.5182 56.9001 17.2487 56.6396 17.0508C56.3818 16.8503 56.0576 16.75 55.667 16.75C55.292 16.75 54.9769 16.8451 54.7217 17.0352C54.4665 17.2227 54.2738 17.4857 54.1436 17.8242C54.0133 18.1602 53.9482 18.5521 53.9482 19ZM59.7451 24.25V16H60.6357V16.9531H60.7451C60.8128 16.849 60.9066 16.7161 61.0264 16.5547C61.1488 16.3906 61.3232 16.2448 61.5498 16.1172C61.779 15.987 62.0889 15.9219 62.4795 15.9219C62.9847 15.9219 63.43 16.0482 63.8154 16.3008C64.2008 16.5534 64.5016 16.9115 64.7178 17.375C64.9339 17.8385 65.042 18.3854 65.042 19.0156C65.042 19.651 64.9339 20.2018 64.7178 20.668C64.5016 21.1315 64.2021 21.4909 63.8193 21.7461C63.4365 21.9987 62.9951 22.125 62.4951 22.125C62.1097 22.125 61.8011 22.0612 61.5693 21.9336C61.3376 21.8034 61.1592 21.6562 61.0342 21.4922C60.9092 21.3255 60.8128 21.1875 60.7451 21.0781H60.667V24.25H59.7451ZM60.6514 19C60.6514 19.4531 60.7178 19.8529 60.8506 20.1992C60.9834 20.543 61.1774 20.8125 61.4326 21.0078C61.6878 21.2005 62.0003 21.2969 62.3701 21.2969C62.7555 21.2969 63.0771 21.1953 63.335 20.9922C63.5954 20.7865 63.7907 20.5104 63.9209 20.1641C64.0537 19.8151 64.1201 19.4271 64.1201 19C64.1201 18.5781 64.055 18.1979 63.9248 17.8594C63.7972 17.5182 63.6032 17.2487 63.3428 17.0508C63.085 16.8503 62.7607 16.75 62.3701 16.75C61.9951 16.75 61.68 16.8451 61.4248 17.0352C61.1696 17.2227 60.9769 17.4857 60.8467 17.8242C60.7165 18.1602 60.6514 18.5521 60.6514 19ZM66.4482 22V16H67.3701V22H66.4482ZM66.917 15C66.7373 15 66.5824 14.9388 66.4521 14.8164C66.3245 14.694 66.2607 14.5469 66.2607 14.375C66.2607 14.2031 66.3245 14.056 66.4521 13.9336C66.5824 13.8112 66.7373 13.75 66.917 13.75C67.0967 13.75 67.2503 13.8112 67.3779 13.9336C67.5081 14.056 67.5732 14.2031 67.5732 14.375C67.5732 14.5469 67.5081 14.694 67.3779 14.8164C67.2503 14.9388 67.0967 15 66.917 15ZM71.4961 22.125C70.9336 22.125 70.4492 21.9922 70.043 21.7266C69.6367 21.4609 69.3242 21.0951 69.1055 20.6289C68.8867 20.1628 68.7773 19.6302 68.7773 19.0312C68.7773 18.4219 68.8893 17.8841 69.1133 17.418C69.3398 16.9492 69.6549 16.5833 70.0586 16.3203C70.4648 16.0547 70.9388 15.9219 71.4805 15.9219C71.9023 15.9219 72.2826 16 72.6211 16.1562C72.9596 16.3125 73.237 16.5312 73.4531 16.8125C73.6693 17.0937 73.8034 17.4219 73.8555 17.7969H72.9336C72.8633 17.5234 72.707 17.2812 72.4648 17.0703C72.2253 16.8568 71.9023 16.75 71.4961 16.75C71.1367 16.75 70.8216 16.8437 70.5508 17.0312C70.2826 17.2161 70.0729 17.4779 69.9219 17.8164C69.7734 18.1523 69.6992 18.5469 69.6992 19C69.6992 19.4635 69.7721 19.8672 69.918 20.2109C70.0664 20.5547 70.2747 20.8216 70.543 21.0117C70.8138 21.2018 71.1315 21.2969 71.4961 21.2969C71.7357 21.2969 71.9531 21.2552 72.1484 21.1719C72.3438 21.0885 72.5091 20.9688 72.6445 20.8125C72.7799 20.6562 72.8763 20.4687 72.9336 20.25H73.8555C73.8034 20.6042 73.6745 20.9232 73.4688 21.207C73.2656 21.4883 72.9961 21.7122 72.6602 21.8789C72.3268 22.043 71.9388 22.125 71.4961 22.125ZM77.6406 22.125C77.099 22.125 76.6237 21.9961 76.2148 21.7383C75.8086 21.4805 75.4909 21.1198 75.2617 20.6562C75.0352 20.1927 74.9219 19.651 74.9219 19.0312C74.9219 18.4062 75.0352 17.8607 75.2617 17.3945C75.4909 16.9284 75.8086 16.5664 76.2148 16.3086C76.6237 16.0508 77.099 15.9219 77.6406 15.9219C78.1823 15.9219 78.6563 16.0508 79.0625 16.3086C79.4714 16.5664 79.7891 16.9284 80.0156 17.3945C80.2448 17.8607 80.3594 18.4062 80.3594 19.0312C80.3594 19.651 80.2448 20.1927 80.0156 20.6562C79.7891 21.1198 79.4714 21.4805 79.0625 21.7383C78.6563 21.9961 78.1823 22.125 77.6406 22.125ZM77.6406 21.2969C78.0521 21.2969 78.3906 21.1914 78.6562 20.9805C78.9219 20.7695 79.1185 20.4922 79.2461 20.1484C79.3737 19.8047 79.4375 19.4323 79.4375 19.0312C79.4375 18.6302 79.3737 18.2565 79.2461 17.9102C79.1185 17.5638 78.9219 17.2839 78.6562 17.0703C78.3906 16.8568 78.0521 16.75 77.6406 16.75C77.2292 16.75 76.8906 16.8568 76.625 17.0703C76.3594 17.2839 76.1628 17.5638 76.0352 17.9102C75.9076 18.2565 75.8438 18.6302 75.8438 19.0312C75.8438 19.4323 75.9076 19.8047 76.0352 20.1484C76.1628 20.4922 76.3594 20.7695 76.625 20.9805C76.8906 21.1914 77.2292 21.2969 77.6406 21.2969ZM82.6885 18.3906V22H81.7666V16H82.6572V16.9375H82.7354C82.876 16.6328 83.0895 16.388 83.376 16.2031C83.6624 16.0156 84.0322 15.9219 84.4854 15.9219C84.8916 15.9219 85.2471 16.0052 85.5518 16.1719C85.8564 16.3359 86.0934 16.5859 86.2627 16.9219C86.432 17.2552 86.5166 17.6771 86.5166 18.1875V22H85.5947V18.25C85.5947 17.7786 85.4723 17.4115 85.2275 17.1484C84.9827 16.8828 84.6468 16.75 84.2197 16.75C83.9255 16.75 83.6624 16.8138 83.4307 16.9414C83.2015 17.069 83.0205 17.2552 82.8877 17.5C82.7549 17.7448 82.6885 18.0417 82.6885 18.3906ZM90.873 16V16.7812H87.6387V16H90.873ZM88.6074 22V15.1719C88.6074 14.8281 88.6882 14.5417 88.8496 14.3125C89.0111 14.0833 89.2207 13.9115 89.4785 13.7969C89.7363 13.6823 90.0085 13.625 90.2949 13.625C90.5215 13.625 90.7064 13.6432 90.8496 13.6797C90.9928 13.7161 91.0996 13.75 91.1699 13.7812L90.9043 14.5781C90.8574 14.5625 90.7923 14.543 90.709 14.5195C90.6283 14.4961 90.5215 14.4844 90.3887 14.4844C90.084 14.4844 89.8639 14.5612 89.7285 14.7148C89.5957 14.8685 89.5293 15.0937 89.5293 15.3906V22H88.6074ZM94.3398 24.375C93.8945 24.375 93.5117 24.3177 93.1914 24.2031C92.8711 24.0911 92.6042 23.9427 92.3906 23.7578C92.1797 23.5755 92.0117 23.3802 91.8867 23.1719L92.6211 22.6563C92.7044 22.7656 92.8099 22.8906 92.9375 23.0312C93.0651 23.1745 93.2396 23.2982 93.4609 23.4023C93.6849 23.5091 93.9779 23.5625 94.3398 23.5625C94.8242 23.5625 95.224 23.4453 95.5391 23.2109C95.8542 22.9766 96.0117 22.6094 96.0117 22.1094V20.8906H95.9336C95.8659 21 95.7695 21.1354 95.6445 21.2969C95.5221 21.4557 95.3451 21.5977 95.1133 21.7227C94.8841 21.8451 94.5742 21.9062 94.1836 21.9062C93.6992 21.9062 93.2643 21.7917 92.8789 21.5625C92.4961 21.3333 92.1927 21 91.9688 20.5625C91.7474 20.125 91.6367 19.5937 91.6367 18.9687C91.6367 18.3542 91.7448 17.819 91.9609 17.3633C92.1771 16.9049 92.4779 16.5508 92.8633 16.3008C93.2487 16.0482 93.694 15.9219 94.1992 15.9219C94.5898 15.9219 94.8997 15.987 95.1289 16.1172C95.3607 16.2448 95.5378 16.3906 95.6602 16.5547C95.7852 16.7161 95.8815 16.849 95.9492 16.9531H96.043V16H96.9336V22.1719C96.9336 22.6875 96.8164 23.1068 96.582 23.4297C96.3503 23.7552 96.0378 23.9935 95.6445 24.1445C95.2539 24.2982 94.819 24.375 94.3398 24.375ZM94.3086 21.0781C94.6784 21.0781 94.9909 20.9935 95.2461 20.8242C95.5013 20.6549 95.6953 20.4115 95.8281 20.0938C95.9609 19.776 96.0273 19.3958 96.0273 18.9531C96.0273 18.5208 95.9622 18.1393 95.832 17.8086C95.7018 17.4779 95.5091 17.2187 95.2539 17.0312C94.9987 16.8437 94.6836 16.75 94.3086 16.75C93.918 16.75 93.5924 16.849 93.332 17.0469C93.0742 17.2448 92.8802 17.5104 92.75 17.8438C92.6224 18.1771 92.5586 18.5469 92.5586 18.9531C92.5586 19.3698 92.6237 19.7383 92.7539 20.0586C92.8867 20.3763 93.082 20.6263 93.3398 20.8086C93.6003 20.9883 93.9232 21.0781 94.3086 21.0781ZM103.138 22V22.8594H98.1377V22H103.138ZM105.736 22.1406C105.356 22.1406 105.011 22.069 104.701 21.9258C104.391 21.7799 104.145 21.5703 103.963 21.2969C103.781 21.0208 103.689 20.6875 103.689 20.2969C103.689 19.9531 103.757 19.6745 103.893 19.4609C104.028 19.2448 104.209 19.0755 104.436 18.9531C104.662 18.8307 104.912 18.7396 105.186 18.6797C105.462 18.6172 105.739 18.5677 106.018 18.5313C106.382 18.4844 106.678 18.4492 106.904 18.4258C107.133 18.3997 107.3 18.3568 107.404 18.2969C107.511 18.237 107.564 18.1328 107.564 17.9844V17.9531C107.564 17.5677 107.459 17.2682 107.248 17.0547C107.04 16.8411 106.723 16.7344 106.299 16.7344C105.859 16.7344 105.514 16.8307 105.264 17.0234C105.014 17.2161 104.838 17.4219 104.736 17.6406L103.861 17.3281C104.018 16.9635 104.226 16.6797 104.486 16.4766C104.749 16.2708 105.036 16.1276 105.346 16.0469C105.658 15.9635 105.965 15.9219 106.268 15.9219C106.46 15.9219 106.682 15.9453 106.932 15.9922C107.184 16.0365 107.428 16.1289 107.662 16.2695C107.899 16.4102 108.096 16.6224 108.252 16.9062C108.408 17.1901 108.486 17.5703 108.486 18.0469V22H107.564V21.1875H107.518C107.455 21.3177 107.351 21.457 107.205 21.6055C107.059 21.7539 106.865 21.8802 106.623 21.9844C106.381 22.0885 106.085 22.1406 105.736 22.1406ZM105.877 21.3125C106.242 21.3125 106.549 21.2409 106.799 21.0977C107.051 20.9544 107.242 20.7695 107.369 20.543C107.499 20.3164 107.564 20.0781 107.564 19.8281V18.9844C107.525 19.0312 107.439 19.0742 107.307 19.1133C107.176 19.1497 107.025 19.1823 106.854 19.2109C106.684 19.237 106.519 19.2604 106.357 19.2812C106.199 19.2995 106.07 19.3151 105.971 19.3281C105.731 19.3594 105.507 19.4102 105.299 19.4805C105.093 19.5482 104.926 19.651 104.799 19.7891C104.674 19.9245 104.611 20.1094 104.611 20.3437C104.611 20.6641 104.73 20.9062 104.967 21.0703C105.206 21.2318 105.51 21.3125 105.877 21.3125ZM111.091 18.3906V22H110.169V16H111.06V16.9375H111.138C111.278 16.6328 111.492 16.388 111.778 16.2031C112.065 16.0156 112.435 15.9219 112.888 15.9219C113.294 15.9219 113.649 16.0052 113.954 16.1719C114.259 16.3359 114.496 16.5859 114.665 16.9219C114.834 17.2552 114.919 17.6771 114.919 18.1875V22H113.997V18.25C113.997 17.7786 113.875 17.4115 113.63 17.1484C113.385 16.8828 113.049 16.75 112.622 16.75C112.328 16.75 112.065 16.8138 111.833 16.9414C111.604 17.069 111.423 17.2552 111.29 17.5C111.157 17.7448 111.091 18.0417 111.091 18.3906ZM118.869 22.125C118.369 22.125 117.928 21.9987 117.545 21.7461C117.162 21.4909 116.863 21.1315 116.646 20.668C116.43 20.2018 116.322 19.651 116.322 19.0156C116.322 18.3854 116.43 17.8385 116.646 17.375C116.863 16.9115 117.163 16.5534 117.549 16.3008C117.934 16.0482 118.38 15.9219 118.885 15.9219C119.275 15.9219 119.584 15.987 119.811 16.1172C120.04 16.2448 120.214 16.3906 120.334 16.5547C120.456 16.7161 120.551 16.849 120.619 16.9531H120.697V14H121.619V22H120.729V21.0781H120.619C120.551 21.1875 120.455 21.3255 120.33 21.4922C120.205 21.6562 120.027 21.8034 119.795 21.9336C119.563 22.0612 119.255 22.125 118.869 22.125ZM118.994 21.2969C119.364 21.2969 119.676 21.2005 119.932 21.0078C120.187 20.8125 120.381 20.543 120.514 20.1992C120.646 19.8529 120.713 19.4531 120.713 19C120.713 18.5521 120.648 18.1602 120.518 17.8242C120.387 17.4857 120.195 17.2227 119.939 17.0352C119.684 16.8451 119.369 16.75 118.994 16.75C118.604 16.75 118.278 16.8503 118.018 17.0508C117.76 17.2487 117.566 17.5182 117.436 17.8594C117.308 18.1979 117.244 18.5781 117.244 19C117.244 19.4271 117.309 19.8151 117.439 20.1641C117.572 20.5104 117.768 20.7865 118.025 20.9922C118.286 21.1953 118.609 21.2969 118.994 21.2969ZM123.436 22V16H124.326V16.9062H124.389C124.498 16.6094 124.696 16.3685 124.982 16.1836C125.269 15.9987 125.592 15.9062 125.951 15.9062C126.019 15.9062 126.104 15.9076 126.205 15.9102C126.307 15.9128 126.383 15.9167 126.436 15.9219V16.8594C126.404 16.8516 126.333 16.8398 126.221 16.8242C126.111 16.806 125.995 16.7969 125.873 16.7969C125.581 16.7969 125.321 16.8581 125.092 16.9805C124.865 17.1003 124.686 17.2669 124.553 17.4805C124.423 17.6914 124.357 17.9323 124.357 18.2031V22H123.436ZM129.783 22.125C129.242 22.125 128.766 21.9961 128.357 21.7383C127.951 21.4805 127.633 21.1198 127.404 20.6562C127.178 20.1927 127.064 19.651 127.064 19.0312C127.064 18.4062 127.178 17.8607 127.404 17.3945C127.633 16.9284 127.951 16.5664 128.357 16.3086C128.766 16.0508 129.242 15.9219 129.783 15.9219C130.325 15.9219 130.799 16.0508 131.205 16.3086C131.614 16.5664 131.932 16.9284 132.158 17.3945C132.387 17.8607 132.502 18.4062 132.502 19.0312C132.502 19.651 132.387 20.1927 132.158 20.6562C131.932 21.1198 131.614 21.4805 131.205 21.7383C130.799 21.9961 130.325 22.125 129.783 22.125ZM129.783 21.2969C130.195 21.2969 130.533 21.1914 130.799 20.9805C131.064 20.7695 131.261 20.4922 131.389 20.1484C131.516 19.8047 131.58 19.4323 131.58 19.0312C131.58 18.6302 131.516 18.2565 131.389 17.9102C131.261 17.5638 131.064 17.2839 130.799 17.0703C130.533 16.8568 130.195 16.75 129.783 16.75C129.372 16.75 129.033 16.8568 128.768 17.0703C128.502 17.2839 128.305 17.5638 128.178 17.9102C128.05 18.2565 127.986 18.6302 127.986 19.0312C127.986 19.4323 128.05 19.8047 128.178 20.1484C128.305 20.4922 128.502 20.7695 128.768 20.9805C129.033 21.1914 129.372 21.2969 129.783 21.2969ZM133.909 22V16H134.831V22H133.909ZM134.378 15C134.198 15 134.043 14.9388 133.913 14.8164C133.785 14.694 133.722 14.5469 133.722 14.375C133.722 14.2031 133.785 14.056 133.913 13.9336C134.043 13.8112 134.198 13.75 134.378 13.75C134.558 13.75 134.711 13.8112 134.839 13.9336C134.969 14.056 135.034 14.2031 135.034 14.375C135.034 14.5469 134.969 14.694 134.839 14.8164C134.711 14.9388 134.558 15 134.378 15ZM138.785 22.125C138.285 22.125 137.844 21.9987 137.461 21.7461C137.078 21.4909 136.779 21.1315 136.563 20.668C136.346 20.2018 136.238 19.651 136.238 19.0156C136.238 18.3854 136.346 17.8385 136.563 17.375C136.779 16.9115 137.079 16.5534 137.465 16.3008C137.85 16.0482 138.296 15.9219 138.801 15.9219C139.191 15.9219 139.5 15.987 139.727 16.1172C139.956 16.2448 140.13 16.3906 140.25 16.5547C140.372 16.7161 140.467 16.849 140.535 16.9531H140.613V14H141.535V22H140.645V21.0781H140.535C140.467 21.1875 140.371 21.3255 140.246 21.4922C140.121 21.6562 139.943 21.8034 139.711 21.9336C139.479 22.0612 139.171 22.125 138.785 22.125ZM138.91 21.2969C139.28 21.2969 139.592 21.2005 139.848 21.0078C140.103 20.8125 140.297 20.543 140.43 20.1992C140.563 19.8529 140.629 19.4531 140.629 19C140.629 18.5521 140.564 18.1602 140.434 17.8242C140.303 17.4857 140.111 17.2227 139.855 17.0352C139.6 16.8451 139.285 16.75 138.91 16.75C138.52 16.75 138.194 16.8503 137.934 17.0508C137.676 17.2487 137.482 17.5182 137.352 17.8594C137.224 18.1979 137.16 18.5781 137.16 19C137.16 19.4271 137.225 19.8151 137.355 20.1641C137.488 20.5104 137.684 20.7865 137.941 20.9922C138.202 21.1953 138.525 21.2969 138.91 21.2969Z" fill="white"/>
<defs>
<clipPath id="clip0_0_1">
<rect width="120" height="120" fill="white" transform="translate(180 180)"/>
</clipPath>
</defs>
</svg>
