<svg width="480" height="480" viewBox="0 0 480 480" fill="none" xmlns="http://www.w3.org/2000/svg">
<path d="M40 42C40 40.8954 40.8954 40 42 40H438C439.105 40 440 40.8954 440 42V438C440 439.105 439.105 440 438 440H42C40.8954 440 40 439.105 40 438V42Z" fill="black"/>
<rect x="40" y="4" width="53.3594" height="30" rx="3" fill="black"/>
<rect x="40.5" y="4.5" width="52.3594" height="29" rx="2.5" stroke="white" stroke-opacity="0.0980392"/>
<path d="M48.6094 22.1406C48.2292 22.1406 47.8841 22.069 47.5742 21.9258C47.2643 21.7799 47.0182 21.5703 46.8359 21.2969C46.6536 21.0208 46.5625 20.6875 46.5625 20.2969C46.5625 19.9531 46.6302 19.6745 46.7656 19.4609C46.901 19.2448 47.082 19.0755 47.3086 18.9531C47.5352 18.8307 47.7852 18.7396 48.0586 18.6797C48.3346 18.6172 48.612 18.5677 48.8906 18.5313C49.2552 18.4844 49.5508 18.4492 49.7773 18.4258C50.0065 18.3997 50.1732 18.3568 50.2773 18.2969C50.3841 18.237 50.4375 18.1328 50.4375 17.9844V17.9531C50.4375 17.5677 50.332 17.2682 50.1211 17.0547C49.9128 16.8411 49.5964 16.7344 49.1719 16.7344C48.7318 16.7344 48.3867 16.8307 48.1367 17.0234C47.8867 17.2161 47.7109 17.4219 47.6094 17.6406L46.7344 17.3281C46.8906 16.9635 47.099 16.6797 47.3594 16.4766C47.6224 16.2708 47.9089 16.1276 48.2188 16.0469C48.5313 15.9635 48.8385 15.9219 49.1406 15.9219C49.3333 15.9219 49.5547 15.9453 49.8047 15.9922C50.0573 16.0365 50.3008 16.1289 50.5352 16.2695C50.7721 16.4102 50.9688 16.6224 51.125 16.9062C51.2813 17.1901 51.3594 17.5703 51.3594 18.0469V22H50.4375V21.1875H50.3906C50.3281 21.3177 50.224 21.457 50.0781 21.6055C49.9323 21.7539 49.7383 21.8802 49.4961 21.9844C49.2539 22.0885 48.9583 22.1406 48.6094 22.1406ZM48.75 21.3125C49.1146 21.3125 49.4219 21.2409 49.6719 21.0977C49.9245 20.9544 50.1146 20.7695 50.2422 20.543C50.3724 20.3164 50.4375 20.0781 50.4375 19.8281V18.9844C50.3984 19.0312 50.3125 19.0742 50.1797 19.1133C50.0495 19.1497 49.8984 19.1823 49.7266 19.2109C49.5573 19.237 49.3919 19.2604 49.2305 19.2812C49.0716 19.2995 48.9427 19.3151 48.8438 19.3281C48.6042 19.3594 48.3802 19.4102 48.1719 19.4805C47.9661 19.5482 47.7995 19.651 47.6719 19.7891C47.5469 19.9245 47.4844 20.1094 47.4844 20.3437C47.4844 20.6641 47.6029 20.9062 47.8398 21.0703C48.0794 21.2318 48.3828 21.3125 48.75 21.3125ZM53.042 24.25V16H53.9326V16.9531H54.042C54.1097 16.849 54.2035 16.7161 54.3232 16.5547C54.4456 16.3906 54.6201 16.2448 54.8467 16.1172C55.0758 15.987 55.3857 15.9219 55.7764 15.9219C56.2816 15.9219 56.7269 16.0482 57.1123 16.3008C57.4977 16.5534 57.7985 16.9115 58.0146 17.375C58.2308 17.8385 58.3389 18.3854 58.3389 19.0156C58.3389 19.651 58.2308 20.2018 58.0146 20.668C57.7985 21.1315 57.499 21.4909 57.1162 21.7461C56.7334 21.9987 56.292 22.125 55.792 22.125C55.4066 22.125 55.098 22.0612 54.8662 21.9336C54.6344 21.8034 54.4561 21.6562 54.3311 21.4922C54.2061 21.3255 54.1097 21.1875 54.042 21.0781H53.9639V24.25H53.042ZM53.9482 19C53.9482 19.4531 54.0146 19.8529 54.1475 20.1992C54.2803 20.543 54.4743 20.8125 54.7295 21.0078C54.9847 21.2005 55.2972 21.2969 55.667 21.2969C56.0524 21.2969 56.374 21.1953 56.6318 20.9922C56.8923 20.7865 57.0876 20.5104 57.2178 20.1641C57.3506 19.8151 57.417 19.4271 57.417 19C57.417 18.5781 57.3519 18.1979 57.2217 17.8594C57.0941 17.5182 56.9001 17.2487 56.6396 17.0508C56.3818 16.8503 56.0576 16.75 55.667 16.75C55.292 16.75 54.9769 16.8451 54.7217 17.0352C54.4665 17.2227 54.2738 17.4857 54.1436 17.8242C54.0133 18.1602 53.9482 18.5521 53.9482 19ZM59.7451 24.25V16H60.6357V16.9531H60.7451C60.8128 16.849 60.9066 16.7161 61.0264 16.5547C61.1488 16.3906 61.3232 16.2448 61.5498 16.1172C61.779 15.987 62.0889 15.9219 62.4795 15.9219C62.9847 15.9219 63.43 16.0482 63.8154 16.3008C64.2008 16.5534 64.5016 16.9115 64.7178 17.375C64.9339 17.8385 65.042 18.3854 65.042 19.0156C65.042 19.651 64.9339 20.2018 64.7178 20.668C64.5016 21.1315 64.2021 21.4909 63.8193 21.7461C63.4365 21.9987 62.9951 22.125 62.4951 22.125C62.1097 22.125 61.8011 22.0612 61.5693 21.9336C61.3376 21.8034 61.1592 21.6562 61.0342 21.4922C60.9092 21.3255 60.8128 21.1875 60.7451 21.0781H60.667V24.25H59.7451ZM60.6514 19C60.6514 19.4531 60.7178 19.8529 60.8506 20.1992C60.9834 20.543 61.1774 20.8125 61.4326 21.0078C61.6878 21.2005 62.0003 21.2969 62.3701 21.2969C62.7555 21.2969 63.0771 21.1953 63.335 20.9922C63.5954 20.7865 63.7907 20.5104 63.9209 20.1641C64.0537 19.8151 64.1201 19.4271 64.1201 19C64.1201 18.5781 64.055 18.1979 63.9248 17.8594C63.7972 17.5182 63.6032 17.2487 63.3428 17.0508C63.085 16.8503 62.7607 16.75 62.3701 16.75C61.9951 16.75 61.68 16.8451 61.4248 17.0352C61.1696 17.2227 60.9769 17.4857 60.8467 17.8242C60.7165 18.1602 60.6514 18.5521 60.6514 19ZM66.4482 22V16H67.3701V22H66.4482ZM66.917 15C66.7373 15 66.5824 14.9388 66.4521 14.8164C66.3245 14.694 66.2607 14.5469 66.2607 14.375C66.2607 14.2031 66.3245 14.056 66.4521 13.9336C66.5824 13.8112 66.7373 13.75 66.917 13.75C67.0967 13.75 67.2503 13.8112 67.3779 13.9336C67.5081 14.056 67.5732 14.2031 67.5732 14.375C67.5732 14.5469 67.5081 14.694 67.3779 14.8164C67.2503 14.9388 67.0967 15 66.917 15ZM71.4961 22.125C70.9336 22.125 70.4492 21.9922 70.043 21.7266C69.6367 21.4609 69.3242 21.0951 69.1055 20.6289C68.8867 20.1628 68.7773 19.6302 68.7773 19.0312C68.7773 18.4219 68.8893 17.8841 69.1133 17.418C69.3398 16.9492 69.6549 16.5833 70.0586 16.3203C70.4648 16.0547 70.9388 15.9219 71.4805 15.9219C71.9023 15.9219 72.2826 16 72.6211 16.1562C72.9596 16.3125 73.237 16.5312 73.4531 16.8125C73.6693 17.0937 73.8034 17.4219 73.8555 17.7969H72.9336C72.8633 17.5234 72.707 17.2812 72.4648 17.0703C72.2253 16.8568 71.9023 16.75 71.4961 16.75C71.1367 16.75 70.8216 16.8437 70.5508 17.0312C70.2826 17.2161 70.0729 17.4779 69.9219 17.8164C69.7734 18.1523 69.6992 18.5469 69.6992 19C69.6992 19.4635 69.7721 19.8672 69.918 20.2109C70.0664 20.5547 70.2747 20.8216 70.543 21.0117C70.8138 21.2018 71.1315 21.2969 71.4961 21.2969C71.7357 21.2969 71.9531 21.2552 72.1484 21.1719C72.3438 21.0885 72.5091 20.9688 72.6445 20.8125C72.7799 20.6562 72.8763 20.4687 72.9336 20.25H73.8555C73.8034 20.6042 73.6745 20.9232 73.4688 21.207C73.2656 21.4883 72.9961 21.7122 72.6602 21.8789C72.3268 22.043 71.9388 22.125 71.4961 22.125ZM77.6406 22.125C77.099 22.125 76.6237 21.9961 76.2148 21.7383C75.8086 21.4805 75.4909 21.1198 75.2617 20.6562C75.0352 20.1927 74.9219 19.651 74.9219 19.0312C74.9219 18.4062 75.0352 17.8607 75.2617 17.3945C75.4909 16.9284 75.8086 16.5664 76.2148 16.3086C76.6237 16.0508 77.099 15.9219 77.6406 15.9219C78.1823 15.9219 78.6563 16.0508 79.0625 16.3086C79.4714 16.5664 79.7891 16.9284 80.0156 17.3945C80.2448 17.8607 80.3594 18.4062 80.3594 19.0312C80.3594 19.651 80.2448 20.1927 80.0156 20.6562C79.7891 21.1198 79.4714 21.4805 79.0625 21.7383C78.6563 21.9961 78.1823 22.125 77.6406 22.125ZM77.6406 21.2969C78.0521 21.2969 78.3906 21.1914 78.6562 20.9805C78.9219 20.7695 79.1185 20.4922 79.2461 20.1484C79.3737 19.8047 79.4375 19.4323 79.4375 19.0312C79.4375 18.6302 79.3737 18.2565 79.2461 17.9102C79.1185 17.5638 78.9219 17.2839 78.6562 17.0703C78.3906 16.8568 78.0521 16.75 77.6406 16.75C77.2292 16.75 76.8906 16.8568 76.625 17.0703C76.3594 17.2839 76.1628 17.5638 76.0352 17.9102C75.9076 18.2565 75.8438 18.6302 75.8438 19.0312C75.8438 19.4323 75.9076 19.8047 76.0352 20.1484C76.1628 20.4922 76.3594 20.7695 76.625 20.9805C76.8906 21.1914 77.2292 21.2969 77.6406 21.2969ZM82.6885 18.3906V22H81.7666V16H82.6572V16.9375H82.7354C82.876 16.6328 83.0895 16.388 83.376 16.2031C83.6624 16.0156 84.0322 15.9219 84.4854 15.9219C84.8916 15.9219 85.2471 16.0052 85.5518 16.1719C85.8564 16.3359 86.0934 16.5859 86.2627 16.9219C86.432 17.2552 86.5166 17.6771 86.5166 18.1875V22H85.5947V18.25C85.5947 17.7786 85.4723 17.4115 85.2275 17.1484C84.9827 16.8828 84.6468 16.75 84.2197 16.75C83.9255 16.75 83.6624 16.8138 83.4307 16.9414C83.2015 17.069 83.0205 17.2552 82.8877 17.5C82.7549 17.7448 82.6885 18.0417 82.6885 18.3906Z" fill="white"/>
</svg>
